<mxfile host="app.diagrams.net" agent="Mozilla/5.0 (X11; Ubuntu; Linux x86_64; rv:130.0) Gecko/20100101 Firefox/130.0" version="24.7.17">
  <diagram name="Page-1" id="o9xU3ECLzaSxrD5Fq6vi">
    <mxGraphModel dx="3520" dy="2100" grid="1" gridSize="10" guides="1" tooltips="1" connect="1" arrows="1" fold="1" page="1" pageScale="1" pageWidth="850" pageHeight="1100" math="0" shadow="0">
      <root>
        <mxCell id="0" />
        <mxCell id="1" parent="0" />
        <mxCell id="sbIvf4Fs-tjNlK2iu9AU-4" value="&lt;div&gt;Mobile Region&lt;/div&gt;&lt;div&gt;Server&lt;br&gt;&lt;/div&gt;" style="sketch=0;points=[[0,0,0],[0.25,0,0],[0.5,0,0],[0.75,0,0],[1,0,0],[0,1,0],[0.25,1,0],[0.5,1,0],[0.75,1,0],[1,1,0],[0,0.25,0],[0,0.5,0],[0,0.75,0],[1,0.25,0],[1,0.5,0],[1,0.75,0]];outlineConnect=0;fontColor=#232F3E;fillColor=#ED7100;strokeColor=#ffffff;dashed=0;verticalLabelPosition=bottom;verticalAlign=top;align=center;html=1;fontSize=12;fontStyle=0;aspect=fixed;shape=mxgraph.aws4.resourceIcon;resIcon=mxgraph.aws4.ecs;" vertex="1" parent="1">
          <mxGeometry x="510" y="220" width="78" height="78" as="geometry" />
        </mxCell>
        <mxCell id="sbIvf4Fs-tjNlK2iu9AU-6" value="Health Records" style="sketch=0;points=[[0,0,0],[0.25,0,0],[0.5,0,0],[0.75,0,0],[1,0,0],[0,1,0],[0.25,1,0],[0.5,1,0],[0.75,1,0],[1,1,0],[0,0.25,0],[0,0.5,0],[0,0.75,0],[1,0.25,0],[1,0.5,0],[1,0.75,0]];outlineConnect=0;fontColor=#232F3E;fillColor=#C925D1;strokeColor=#ffffff;dashed=0;verticalLabelPosition=bottom;verticalAlign=top;align=center;html=1;fontSize=12;fontStyle=0;aspect=fixed;shape=mxgraph.aws4.resourceIcon;resIcon=mxgraph.aws4.rds;" vertex="1" parent="1">
          <mxGeometry x="450" y="40" width="78" height="78" as="geometry" />
        </mxCell>
        <mxCell id="sbIvf4Fs-tjNlK2iu9AU-7" value="&lt;div&gt;Artifact&lt;/div&gt;" style="sketch=0;points=[[0,0,0],[0.25,0,0],[0.5,0,0],[0.75,0,0],[1,0,0],[0,1,0],[0.25,1,0],[0.5,1,0],[0.75,1,0],[1,1,0],[0,0.25,0],[0,0.5,0],[0,0.75,0],[1,0.25,0],[1,0.5,0],[1,0.75,0]];outlineConnect=0;fontColor=#232F3E;fillColor=#DD344C;strokeColor=#ffffff;dashed=0;verticalLabelPosition=bottom;verticalAlign=top;align=center;html=1;fontSize=12;fontStyle=0;aspect=fixed;shape=mxgraph.aws4.resourceIcon;resIcon=mxgraph.aws4.artifact;" vertex="1" parent="1">
          <mxGeometry x="290" y="70" width="78" height="78" as="geometry" />
        </mxCell>
        <mxCell id="sbIvf4Fs-tjNlK2iu9AU-8" value="KMS" style="sketch=0;points=[[0,0,0],[0.25,0,0],[0.5,0,0],[0.75,0,0],[1,0,0],[0,1,0],[0.25,1,0],[0.5,1,0],[0.75,1,0],[1,1,0],[0,0.25,0],[0,0.5,0],[0,0.75,0],[1,0.25,0],[1,0.5,0],[1,0.75,0]];outlineConnect=0;fontColor=#232F3E;fillColor=#DD344C;strokeColor=#ffffff;dashed=0;verticalLabelPosition=bottom;verticalAlign=top;align=center;html=1;fontSize=12;fontStyle=0;aspect=fixed;shape=mxgraph.aws4.resourceIcon;resIcon=mxgraph.aws4.key_management_service;" vertex="1" parent="1">
          <mxGeometry x="280" y="310" width="78" height="78" as="geometry" />
        </mxCell>
        <mxCell id="sbIvf4Fs-tjNlK2iu9AU-17" value="&lt;div&gt;Edge Locations&lt;/div&gt;&lt;div&gt;(Cache Mobile APK)&lt;br&gt;&lt;/div&gt;" style="sketch=0;outlineConnect=0;fontColor=#232F3E;gradientColor=none;fillColor=#8C4FFF;strokeColor=none;dashed=0;verticalLabelPosition=bottom;verticalAlign=top;align=center;html=1;fontSize=12;fontStyle=0;aspect=fixed;pointerEvents=1;shape=mxgraph.aws4.edge_location;" vertex="1" parent="1">
          <mxGeometry x="862" y="660" width="78" height="78" as="geometry" />
        </mxCell>
        <mxCell id="sbIvf4Fs-tjNlK2iu9AU-18" value="API Gateway" style="sketch=0;points=[[0,0,0],[0.25,0,0],[0.5,0,0],[0.75,0,0],[1,0,0],[0,1,0],[0.25,1,0],[0.5,1,0],[0.75,1,0],[1,1,0],[0,0.25,0],[0,0.5,0],[0,0.75,0],[1,0.25,0],[1,0.5,0],[1,0.75,0]];outlineConnect=0;fontColor=#232F3E;fillColor=#E7157B;strokeColor=#ffffff;dashed=0;verticalLabelPosition=bottom;verticalAlign=top;align=center;html=1;fontSize=12;fontStyle=0;aspect=fixed;shape=mxgraph.aws4.resourceIcon;resIcon=mxgraph.aws4.api_gateway;" vertex="1" parent="1">
          <mxGeometry x="492" y="560" width="78" height="78" as="geometry" />
        </mxCell>
        <mxCell id="sbIvf4Fs-tjNlK2iu9AU-19" value="Auto Scaling group" style="points=[[0,0],[0.25,0],[0.5,0],[0.75,0],[1,0],[1,0.25],[1,0.5],[1,0.75],[1,1],[0.75,1],[0.5,1],[0.25,1],[0,1],[0,0.75],[0,0.5],[0,0.25]];outlineConnect=0;gradientColor=none;html=1;whiteSpace=wrap;fontSize=12;fontStyle=0;container=1;pointerEvents=0;collapsible=0;recursiveResize=0;shape=mxgraph.aws4.groupCenter;grIcon=mxgraph.aws4.group_auto_scaling_group;grStroke=1;strokeColor=#D86613;fillColor=none;verticalAlign=top;align=center;fontColor=#D86613;dashed=1;spacingTop=25;" vertex="1" parent="1">
          <mxGeometry x="628" y="540" width="130" height="130" as="geometry" />
        </mxCell>
        <mxCell id="sbIvf4Fs-tjNlK2iu9AU-20" value="Auto Scaling" style="sketch=0;points=[[0,0,0],[0.25,0,0],[0.5,0,0],[0.75,0,0],[1,0,0],[0,1,0],[0.25,1,0],[0.5,1,0],[0.75,1,0],[1,1,0],[0,0.25,0],[0,0.5,0],[0,0.75,0],[1,0.25,0],[1,0.5,0],[1,0.75,0]];outlineConnect=0;fontColor=#232F3E;fillColor=#ED7100;strokeColor=#ffffff;dashed=0;verticalLabelPosition=bottom;verticalAlign=top;align=center;html=1;fontSize=12;fontStyle=0;aspect=fixed;shape=mxgraph.aws4.resourceIcon;resIcon=mxgraph.aws4.auto_scaling3;" vertex="1" parent="1">
          <mxGeometry x="60" y="340" width="78" height="78" as="geometry" />
        </mxCell>
        <mxCell id="sbIvf4Fs-tjNlK2iu9AU-27" style="edgeStyle=orthogonalEdgeStyle;rounded=0;orthogonalLoop=1;jettySize=auto;html=1;" edge="1" parent="1" source="sbIvf4Fs-tjNlK2iu9AU-22" target="sbIvf4Fs-tjNlK2iu9AU-23">
          <mxGeometry relative="1" as="geometry" />
        </mxCell>
        <mxCell id="sbIvf4Fs-tjNlK2iu9AU-30" value="Register" style="edgeLabel;html=1;align=center;verticalAlign=middle;resizable=0;points=[];" vertex="1" connectable="0" parent="sbIvf4Fs-tjNlK2iu9AU-27">
          <mxGeometry x="0.2506" y="2" relative="1" as="geometry">
            <mxPoint as="offset" />
          </mxGeometry>
        </mxCell>
        <mxCell id="sbIvf4Fs-tjNlK2iu9AU-22" value="&lt;div&gt;Samsung&lt;/div&gt;&lt;div&gt;Phone&lt;br&gt;&lt;/div&gt;" style="verticalLabelPosition=bottom;html=1;verticalAlign=top;align=center;strokeColor=none;fillColor=#00BEF2;shape=mxgraph.azure.mobile;pointerEvents=1;" vertex="1" parent="1">
          <mxGeometry x="290" y="750" width="35" height="50" as="geometry" />
        </mxCell>
        <mxCell id="sbIvf4Fs-tjNlK2iu9AU-38" style="edgeStyle=orthogonalEdgeStyle;rounded=0;orthogonalLoop=1;jettySize=auto;html=1;entryX=0;entryY=0.5;entryDx=0;entryDy=0;entryPerimeter=0;" edge="1" parent="1" source="sbIvf4Fs-tjNlK2iu9AU-23" target="sbIvf4Fs-tjNlK2iu9AU-21">
          <mxGeometry relative="1" as="geometry" />
        </mxCell>
        <mxCell id="sbIvf4Fs-tjNlK2iu9AU-40" value="SAML 2.0" style="edgeLabel;html=1;align=center;verticalAlign=middle;resizable=0;points=[];" vertex="1" connectable="0" parent="sbIvf4Fs-tjNlK2iu9AU-38">
          <mxGeometry x="0.0864" y="-4" relative="1" as="geometry">
            <mxPoint y="1" as="offset" />
          </mxGeometry>
        </mxCell>
        <mxCell id="sbIvf4Fs-tjNlK2iu9AU-23" value="Samsung Cloud" style="html=1;whiteSpace=wrap;strokeColor=none;fillColor=#0079D6;labelPosition=center;verticalLabelPosition=middle;verticalAlign=top;align=center;fontSize=12;outlineConnect=0;spacingTop=-6;fontColor=#FFFFFF;sketch=0;shape=mxgraph.sitemap.cloud;" vertex="1" parent="1">
          <mxGeometry x="220" y="1250" width="120" height="70" as="geometry" />
        </mxCell>
        <mxCell id="sbIvf4Fs-tjNlK2iu9AU-24" value="" style="shape=actor;whiteSpace=wrap;html=1;" vertex="1" parent="1">
          <mxGeometry x="120" y="750" width="40" height="60" as="geometry" />
        </mxCell>
        <mxCell id="sbIvf4Fs-tjNlK2iu9AU-26" style="edgeStyle=orthogonalEdgeStyle;rounded=0;orthogonalLoop=1;jettySize=auto;html=1;entryX=0;entryY=0.5;entryDx=0;entryDy=0;entryPerimeter=0;" edge="1" parent="1" source="sbIvf4Fs-tjNlK2iu9AU-24" target="sbIvf4Fs-tjNlK2iu9AU-22">
          <mxGeometry relative="1" as="geometry" />
        </mxCell>
        <mxCell id="sbIvf4Fs-tjNlK2iu9AU-33" style="edgeStyle=orthogonalEdgeStyle;rounded=0;orthogonalLoop=1;jettySize=auto;html=1;entryX=1;entryY=0.5;entryDx=0;entryDy=0;entryPerimeter=0;" edge="1" parent="1" source="sbIvf4Fs-tjNlK2iu9AU-17" target="sbIvf4Fs-tjNlK2iu9AU-22">
          <mxGeometry relative="1" as="geometry" />
        </mxCell>
        <mxCell id="sbIvf4Fs-tjNlK2iu9AU-34" value="Install" style="edgeLabel;html=1;align=center;verticalAlign=middle;resizable=0;points=[];" vertex="1" connectable="0" parent="sbIvf4Fs-tjNlK2iu9AU-33">
          <mxGeometry x="-0.1995" relative="1" as="geometry">
            <mxPoint as="offset" />
          </mxGeometry>
        </mxCell>
        <mxCell id="sbIvf4Fs-tjNlK2iu9AU-44" style="edgeStyle=orthogonalEdgeStyle;rounded=0;orthogonalLoop=1;jettySize=auto;html=1;" edge="1" parent="1" source="sbIvf4Fs-tjNlK2iu9AU-42" target="sbIvf4Fs-tjNlK2iu9AU-17">
          <mxGeometry relative="1" as="geometry" />
        </mxCell>
        <mxCell id="sbIvf4Fs-tjNlK2iu9AU-45" value="AWS Account" style="points=[[0,0],[0.25,0],[0.5,0],[0.75,0],[1,0],[1,0.25],[1,0.5],[1,0.75],[1,1],[0.75,1],[0.5,1],[0.25,1],[0,1],[0,0.75],[0,0.5],[0,0.25]];outlineConnect=0;gradientColor=none;html=1;whiteSpace=wrap;fontSize=12;fontStyle=0;container=1;pointerEvents=0;collapsible=0;recursiveResize=0;shape=mxgraph.aws4.group;grIcon=mxgraph.aws4.group_account;strokeColor=#CD2264;fillColor=none;verticalAlign=top;align=left;spacingLeft=30;fontColor=#CD2264;dashed=0;" vertex="1" parent="1">
          <mxGeometry x="1390" y="100" width="4440" height="3330" as="geometry" />
        </mxCell>
        <mxCell id="sbIvf4Fs-tjNlK2iu9AU-47" value="" style="rounded=0;whiteSpace=wrap;html=1;dashed=1;fillColor=none;" vertex="1" parent="sbIvf4Fs-tjNlK2iu9AU-45">
          <mxGeometry x="1860" y="180" width="670" height="900" as="geometry" />
        </mxCell>
        <mxCell id="sbIvf4Fs-tjNlK2iu9AU-48" value="" style="rounded=0;whiteSpace=wrap;html=1;dashed=1;fillColor=none;" vertex="1" parent="sbIvf4Fs-tjNlK2iu9AU-45">
          <mxGeometry x="1940" y="310" width="460" height="480" as="geometry" />
        </mxCell>
        <mxCell id="sbIvf4Fs-tjNlK2iu9AU-9" value="VPC" style="points=[[0,0],[0.25,0],[0.5,0],[0.75,0],[1,0],[1,0.25],[1,0.5],[1,0.75],[1,1],[0.75,1],[0.5,1],[0.25,1],[0,1],[0,0.75],[0,0.5],[0,0.25]];outlineConnect=0;gradientColor=none;html=1;whiteSpace=wrap;fontSize=12;fontStyle=0;container=1;pointerEvents=0;collapsible=0;recursiveResize=0;shape=mxgraph.aws4.group;grIcon=mxgraph.aws4.group_vpc2;strokeColor=#8C4FFF;fillColor=none;verticalAlign=top;align=left;spacingLeft=30;fontColor=#AAB7B8;dashed=0;" vertex="1" parent="sbIvf4Fs-tjNlK2iu9AU-45">
          <mxGeometry x="90" y="428" width="1580" height="1210" as="geometry" />
        </mxCell>
        <mxCell id="sbIvf4Fs-tjNlK2iu9AU-10" value="ap-northest-1a" style="sketch=0;outlineConnect=0;gradientColor=none;html=1;whiteSpace=wrap;fontSize=12;fontStyle=0;shape=mxgraph.aws4.group;grIcon=mxgraph.aws4.group_availability_zone;strokeColor=#545B64;fillColor=none;verticalAlign=top;align=left;spacingLeft=30;fontColor=#545B64;dashed=1;" vertex="1" parent="sbIvf4Fs-tjNlK2iu9AU-9">
          <mxGeometry x="580" y="40" width="910" height="870" as="geometry" />
        </mxCell>
        <mxCell id="sbIvf4Fs-tjNlK2iu9AU-3" value="Mobile App" style="sketch=0;points=[[0,0,0],[0.25,0,0],[0.5,0,0],[0.75,0,0],[1,0,0],[0,1,0],[0.25,1,0],[0.5,1,0],[0.75,1,0],[1,1,0],[0,0.25,0],[0,0.5,0],[0,0.75,0],[1,0.25,0],[1,0.5,0],[1,0.75,0]];outlineConnect=0;fontColor=#232F3E;fillColor=#DD344C;strokeColor=#ffffff;dashed=0;verticalLabelPosition=bottom;verticalAlign=top;align=center;html=1;fontSize=12;fontStyle=0;aspect=fixed;shape=mxgraph.aws4.resourceIcon;resIcon=mxgraph.aws4.amplify;" vertex="1" parent="sbIvf4Fs-tjNlK2iu9AU-9">
          <mxGeometry x="970" y="95" width="78" height="78" as="geometry" />
        </mxCell>
        <mxCell id="sbIvf4Fs-tjNlK2iu9AU-39" style="edgeStyle=orthogonalEdgeStyle;rounded=0;orthogonalLoop=1;jettySize=auto;html=1;" edge="1" parent="sbIvf4Fs-tjNlK2iu9AU-9" source="sbIvf4Fs-tjNlK2iu9AU-12" target="sbIvf4Fs-tjNlK2iu9AU-13">
          <mxGeometry relative="1" as="geometry" />
        </mxCell>
        <mxCell id="sbIvf4Fs-tjNlK2iu9AU-12" value="Internet Gateway" style="sketch=0;outlineConnect=0;fontColor=#232F3E;gradientColor=none;fillColor=#8C4FFF;strokeColor=none;dashed=0;verticalLabelPosition=bottom;verticalAlign=top;align=center;html=1;fontSize=12;fontStyle=0;aspect=fixed;pointerEvents=1;shape=mxgraph.aws4.internet_gateway;" vertex="1" parent="sbIvf4Fs-tjNlK2iu9AU-9">
          <mxGeometry x="-40" y="456" width="78" height="78" as="geometry" />
        </mxCell>
        <mxCell id="sbIvf4Fs-tjNlK2iu9AU-13" value="Router" style="sketch=0;outlineConnect=0;fontColor=#232F3E;gradientColor=none;fillColor=#8C4FFF;strokeColor=none;dashed=0;verticalLabelPosition=bottom;verticalAlign=top;align=center;html=1;fontSize=12;fontStyle=0;aspect=fixed;pointerEvents=1;shape=mxgraph.aws4.customer_gateway;" vertex="1" parent="sbIvf4Fs-tjNlK2iu9AU-9">
          <mxGeometry x="140" y="470" width="78" height="78" as="geometry" />
        </mxCell>
        <mxCell id="sbIvf4Fs-tjNlK2iu9AU-11" value="Subnet" style="sketch=0;outlineConnect=0;gradientColor=none;html=1;whiteSpace=wrap;fontSize=12;fontStyle=0;shape=mxgraph.aws4.group;grIcon=mxgraph.aws4.group_subnet;strokeColor=#879196;fillColor=none;verticalAlign=top;align=left;spacingLeft=30;fontColor=#879196;dashed=0;" vertex="1" parent="sbIvf4Fs-tjNlK2iu9AU-9">
          <mxGeometry x="660" y="270" width="730" height="260" as="geometry" />
        </mxCell>
        <mxCell id="sbIvf4Fs-tjNlK2iu9AU-1" value="CloudFront" style="sketch=0;points=[[0,0,0],[0.25,0,0],[0.5,0,0],[0.75,0,0],[1,0,0],[0,1,0],[0.25,1,0],[0.5,1,0],[0.75,1,0],[1,1,0],[0,0.25,0],[0,0.5,0],[0,0.75,0],[1,0.25,0],[1,0.5,0],[1,0.75,0]];outlineConnect=0;fontColor=#232F3E;fillColor=#8C4FFF;strokeColor=#ffffff;dashed=0;verticalLabelPosition=bottom;verticalAlign=top;align=center;html=1;fontSize=12;fontStyle=0;aspect=fixed;shape=mxgraph.aws4.resourceIcon;resIcon=mxgraph.aws4.cloudfront;" vertex="1" parent="sbIvf4Fs-tjNlK2iu9AU-45">
          <mxGeometry x="283" y="200" width="78" height="78" as="geometry" />
        </mxCell>
        <mxCell id="sbIvf4Fs-tjNlK2iu9AU-36" style="edgeStyle=orthogonalEdgeStyle;rounded=0;orthogonalLoop=1;jettySize=auto;html=1;entryX=1;entryY=0.5;entryDx=0;entryDy=0;entryPerimeter=0;" edge="1" parent="sbIvf4Fs-tjNlK2iu9AU-45" source="sbIvf4Fs-tjNlK2iu9AU-3" target="sbIvf4Fs-tjNlK2iu9AU-1">
          <mxGeometry relative="1" as="geometry" />
        </mxCell>
        <mxCell id="sbIvf4Fs-tjNlK2iu9AU-43" style="edgeStyle=orthogonalEdgeStyle;rounded=0;orthogonalLoop=1;jettySize=auto;html=1;" edge="1" parent="sbIvf4Fs-tjNlK2iu9AU-45" source="sbIvf4Fs-tjNlK2iu9AU-41" target="sbIvf4Fs-tjNlK2iu9AU-42">
          <mxGeometry relative="1" as="geometry" />
        </mxCell>
        <mxCell id="sbIvf4Fs-tjNlK2iu9AU-41" value="Security Hub" style="sketch=0;points=[[0,0,0],[0.25,0,0],[0.5,0,0],[0.75,0,0],[1,0,0],[0,1,0],[0.25,1,0],[0.5,1,0],[0.75,1,0],[1,1,0],[0,0.25,0],[0,0.5,0],[0,0.75,0],[1,0.25,0],[1,0.5,0],[1,0.75,0]];outlineConnect=0;fontColor=#232F3E;fillColor=#DD344C;strokeColor=#ffffff;dashed=0;verticalLabelPosition=bottom;verticalAlign=top;align=center;html=1;fontSize=12;fontStyle=0;aspect=fixed;shape=mxgraph.aws4.resourceIcon;resIcon=mxgraph.aws4.security_hub;" vertex="1" parent="sbIvf4Fs-tjNlK2iu9AU-45">
          <mxGeometry x="205" y="40" width="78" height="78" as="geometry" />
        </mxCell>
        <mxCell id="sbIvf4Fs-tjNlK2iu9AU-42" value="WAF" style="sketch=0;points=[[0,0,0],[0.25,0,0],[0.5,0,0],[0.75,0,0],[1,0,0],[0,1,0],[0.25,1,0],[0.5,1,0],[0.75,1,0],[1,1,0],[0,0.25,0],[0,0.5,0],[0,0.75,0],[1,0.25,0],[1,0.5,0],[1,0.75,0]];outlineConnect=0;fontColor=#232F3E;fillColor=#DD344C;strokeColor=#ffffff;dashed=0;verticalLabelPosition=bottom;verticalAlign=top;align=center;html=1;fontSize=12;fontStyle=0;aspect=fixed;shape=mxgraph.aws4.resourceIcon;resIcon=mxgraph.aws4.waf;" vertex="1" parent="sbIvf4Fs-tjNlK2iu9AU-45">
          <mxGeometry x="35" y="148" width="78" height="78" as="geometry" />
        </mxCell>
        <mxCell id="sbIvf4Fs-tjNlK2iu9AU-31" style="edgeStyle=orthogonalEdgeStyle;rounded=0;orthogonalLoop=1;jettySize=auto;html=1;entryX=1;entryY=0.5;entryDx=0;entryDy=0;entryPerimeter=0;" edge="1" parent="sbIvf4Fs-tjNlK2iu9AU-45" source="sbIvf4Fs-tjNlK2iu9AU-1" target="sbIvf4Fs-tjNlK2iu9AU-42">
          <mxGeometry relative="1" as="geometry" />
        </mxCell>
        <mxCell id="sbIvf4Fs-tjNlK2iu9AU-32" value="Distribute" style="edgeLabel;html=1;align=center;verticalAlign=middle;resizable=0;points=[];" vertex="1" connectable="0" parent="sbIvf4Fs-tjNlK2iu9AU-31">
          <mxGeometry x="-0.2785" y="1" relative="1" as="geometry">
            <mxPoint as="offset" />
          </mxGeometry>
        </mxCell>
        <mxCell id="sbIvf4Fs-tjNlK2iu9AU-2" value="Static Resources" style="sketch=0;points=[[0,0,0],[0.25,0,0],[0.5,0,0],[0.75,0,0],[1,0,0],[0,1,0],[0.25,1,0],[0.5,1,0],[0.75,1,0],[1,1,0],[0,0.25,0],[0,0.5,0],[0,0.75,0],[1,0.25,0],[1,0.5,0],[1,0.75,0]];outlineConnect=0;fontColor=#232F3E;fillColor=#7AA116;strokeColor=#ffffff;dashed=0;verticalLabelPosition=bottom;verticalAlign=top;align=center;html=1;fontSize=12;fontStyle=0;aspect=fixed;shape=mxgraph.aws4.resourceIcon;resIcon=mxgraph.aws4.s3;" vertex="1" parent="sbIvf4Fs-tjNlK2iu9AU-45">
          <mxGeometry x="900" y="140" width="78" height="78" as="geometry" />
        </mxCell>
        <mxCell id="sbIvf4Fs-tjNlK2iu9AU-37" style="edgeStyle=orthogonalEdgeStyle;rounded=0;orthogonalLoop=1;jettySize=auto;html=1;entryX=1;entryY=0.5;entryDx=0;entryDy=0;entryPerimeter=0;" edge="1" parent="sbIvf4Fs-tjNlK2iu9AU-45" source="sbIvf4Fs-tjNlK2iu9AU-2" target="sbIvf4Fs-tjNlK2iu9AU-1">
          <mxGeometry relative="1" as="geometry" />
        </mxCell>
        <mxCell id="sbIvf4Fs-tjNlK2iu9AU-14" value="Organization" style="sketch=0;points=[[0,0,0],[0.25,0,0],[0.5,0,0],[0.75,0,0],[1,0,0],[0,1,0],[0.25,1,0],[0.5,1,0],[0.75,1,0],[1,1,0],[0,0.25,0],[0,0.5,0],[0,0.75,0],[1,0.25,0],[1,0.5,0],[1,0.75,0]];points=[[0,0,0],[0.25,0,0],[0.5,0,0],[0.75,0,0],[1,0,0],[0,1,0],[0.25,1,0],[0.5,1,0],[0.75,1,0],[1,1,0],[0,0.25,0],[0,0.5,0],[0,0.75,0],[1,0.25,0],[1,0.5,0],[1,0.75,0]];outlineConnect=0;fontColor=#232F3E;fillColor=#E7157B;strokeColor=#ffffff;dashed=0;verticalLabelPosition=bottom;verticalAlign=top;align=center;html=1;fontSize=12;fontStyle=0;aspect=fixed;shape=mxgraph.aws4.resourceIcon;resIcon=mxgraph.aws4.organizations;" vertex="1" parent="sbIvf4Fs-tjNlK2iu9AU-45">
          <mxGeometry x="1870" y="190" width="78" height="78" as="geometry" />
        </mxCell>
        <mxCell id="sbIvf4Fs-tjNlK2iu9AU-49" style="edgeStyle=orthogonalEdgeStyle;rounded=0;orthogonalLoop=1;jettySize=auto;html=1;entryX=0;entryY=0.5;entryDx=0;entryDy=0;" edge="1" parent="sbIvf4Fs-tjNlK2iu9AU-45" source="sbIvf4Fs-tjNlK2iu9AU-21" target="sbIvf4Fs-tjNlK2iu9AU-48">
          <mxGeometry relative="1" as="geometry">
            <Array as="points">
              <mxPoint x="1740" y="2019" />
              <mxPoint x="1740" y="550" />
            </Array>
          </mxGeometry>
        </mxCell>
        <mxCell id="sbIvf4Fs-tjNlK2iu9AU-21" value="&lt;div&gt;Cognito&lt;/div&gt;&lt;div&gt;User Pool&lt;br&gt;&lt;/div&gt;" style="sketch=0;points=[[0,0,0],[0.25,0,0],[0.5,0,0],[0.75,0,0],[1,0,0],[0,1,0],[0.25,1,0],[0.5,1,0],[0.75,1,0],[1,1,0],[0,0.25,0],[0,0.5,0],[0,0.75,0],[1,0.25,0],[1,0.5,0],[1,0.75,0]];outlineConnect=0;fontColor=#232F3E;fillColor=#DD344C;strokeColor=#ffffff;dashed=0;verticalLabelPosition=bottom;verticalAlign=top;align=center;html=1;fontSize=12;fontStyle=0;aspect=fixed;shape=mxgraph.aws4.resourceIcon;resIcon=mxgraph.aws4.cognito;" vertex="1" parent="sbIvf4Fs-tjNlK2iu9AU-45">
          <mxGeometry x="420" y="1980" width="78" height="78" as="geometry" />
        </mxCell>
        <mxCell id="sbIvf4Fs-tjNlK2iu9AU-16" value="User OU" style="sketch=0;outlineConnect=0;fontColor=#232F3E;gradientColor=none;fillColor=#E7157B;strokeColor=none;dashed=0;verticalLabelPosition=bottom;verticalAlign=top;align=center;html=1;fontSize=12;fontStyle=0;aspect=fixed;pointerEvents=1;shape=mxgraph.aws4.organizations_organizational_unit2;" vertex="1" parent="sbIvf4Fs-tjNlK2iu9AU-45">
          <mxGeometry x="1970" y="350" width="78" height="78" as="geometry" />
        </mxCell>
        <mxCell id="sbIvf4Fs-tjNlK2iu9AU-15" value="User" style="sketch=0;outlineConnect=0;fontColor=#232F3E;gradientColor=none;fillColor=#E7157B;strokeColor=none;dashed=0;verticalLabelPosition=bottom;verticalAlign=top;align=center;html=1;fontSize=12;fontStyle=0;aspect=fixed;pointerEvents=1;shape=mxgraph.aws4.organizations_account;" vertex="1" parent="sbIvf4Fs-tjNlK2iu9AU-45">
          <mxGeometry x="2100" y="490" width="74" height="78" as="geometry" />
        </mxCell>
        <mxCell id="sbIvf4Fs-tjNlK2iu9AU-46" value="&amp;nbsp;" style="text;whiteSpace=wrap;html=1;" vertex="1" parent="1">
          <mxGeometry x="590" y="760" width="40" height="40" as="geometry" />
        </mxCell>
      </root>
    </mxGraphModel>
  </diagram>
</mxfile>
